<?xml version="1.0" encoding="UTF-8" standalone="no"?>
<svg xmlns="http://www.w3.org/2000/svg" xmlns:svg="http://www.w3.org/2000/svg" viewBox="0 0 192 192.00002" width="192" height="192" version="1.1" id="svg9">
  
  <defs id="defs4">
    <marker id="DistanceX" orient="auto" refX="0" refY="0" style="overflow:visible">
      <path d="M 3,-3 -3,3 M 0,-5 V 5" style="stroke:#000000;stroke-width:0.5" id="path1"/>
    </marker>
    
    
    
  </defs>
  <g id="g9">
    <g id="g1" transform="matrix(1.3987331,0,0,1.3987331,-30.488641,-44.957872)">
      <path d="m 94.664141,133.80188 a 4.0133048,4.0133048 0 0 0 4.01331,-4.01331 v -15.54388 l 27.915419,26.03155 a 4.6821886,4.6821886 0 1 0 6.38648,-6.84867 L 98.677451,101.44053 V 99.274824 L 132.97935,67.287783 a 4.6821886,4.6821886 0 0 0 -6.38648,-6.848669 L 98.677451,86.470666 V 69.589009 a 2.6755363,2.6755363 0 0 0 -2.67553,-2.675536 5.35108,5.35108 0 1 0 -10.70216,0 2.6755363,2.6755363 0 0 0 -2.67553,2.675536 V 86.470666 L 54.70882,60.439114 a 4.6821891,4.6821891 0 0 0 -6.386491,6.848669 l 34.301902,31.987041 v 2.165706 l -34.301902,31.98704 a 4.6821886,4.6821886 0 0 0 6.386491,6.84867 l 27.915411,-26.03155 v 15.54388 a 4.0133048,4.0133048 0 0 0 4.01331,4.01331 z" style="fill:#ffffff;stroke:#ffffff;stroke-width:0.353952" id="path5"/>
      <path d="m 68.844201,62.392043 a 6.6888413,6.6888413 0 0 0 6.66486,6.12292 h 0.99486 A 25.417597,25.417597 0 1 0 57.324683,88.608313 V 87.927208 A 6.6888413,6.6888413 0 0 0 50.880212,81.242831 17.390986,17.390986 0 1 1 68.844201,62.392043 Z" style="fill:#ffffff;stroke:#ffffff;stroke-width:0.353952" id="path6"/>
      <path d="m 75.509061,132.20039 a 6.6888413,6.6888413 0 0 0 -6.66486,6.12291 17.390986,17.390986 0 1 1 -17.963989,-18.85078 6.6888413,6.6888413 0 0 0 6.444471,-6.68436 v -0.68113 a 25.417597,25.417597 0 1 0 19.179238,20.09336 z" style="fill:#ffffff;stroke:#ffffff;stroke-width:0.353952" id="path7"/>
      <path d="m 112.45748,138.3233 a 6.6888413,6.6888413 0 0 0 -6.66485,-6.12291 h -0.99487 A 25.417597,25.417597 0 1 0 123.977,112.10703 v 0.68113 a 6.6888413,6.6888413 0 0 0 6.44447,6.68436 17.390986,17.390986 0 1 1 -17.96399,18.85078 z" style="fill:#ffffff;stroke:#ffffff;stroke-width:0.353952" id="path8"/>
      <path d="m 105.79263,68.514963 a 6.6888413,6.6888413 0 0 0 6.66485,-6.12292 17.390986,17.390986 0 1 1 17.96399,18.850788 6.6888413,6.6888413 0 0 0 -6.44447,6.684377 v 0.681105 a 25.417597,25.417597 0 1 0 -19.17924,-20.09335 z" style="fill:#ffffff;stroke:#ffffff;stroke-width:0.353952" id="path9"/>
    </g>
    <text xml:space="preserve" style="font-style:normal;font-variant:normal;font-weight:normal;font-stretch:normal;font-size:272.126px;line-height:0px;font-family:sans-serif;-inkscape-font-specification:sans-serif;text-align:start;writing-mode:lr-tb;direction:ltr;text-anchor:start;fill:#ffffff;stroke:#ffffff;stroke-width:12;stroke-dasharray:none" x="1452.3973" y="130.10765" id="text4"><tspan id="tspan4" x="1452.3973" y="130.10765"> </tspan></text>
  </g>
</svg>
